# xmcd
#
# Track frame offsets:
# 150
# 33975
# 48755
# 71847
# 91440
# 105035
# 140897
# 163155
# 196037
# 212935
# 228525
# 285300
# 299690
#
# Disc length: 4327 seconds
#
#
# Revision: 0
# Processed by: cddbd v1.5.2PL0 Copyright (c) Steve Scherf et al.
# Submitted via: FreeRIP 2.951 
#
DISCID=c010e50d
DTITLE=Captain Beefheart and His Magic Band - Captain Hook
DYEAR=1993
DGENRE=Blues
TTITLE0=Mirror Man
TTITLE1=Upon the my oh my
TTITLE2=Crazy little Thing
TTITLE3=Full Moon, Hot Sun
TTITLE4=Sugar Bowl
TTITLE5=This is  the Day
TTITLE6=Keep on Rubbing
TTITLE7=Be your Dog
TTITLE8=Sweet Georgia Brown
TTITLE9=Abba Zabba
TTITLE10=Peachers
TTITLE11=Sam with the showing scalp flat top
TTITLE12=Grow Fins
EXTD=
EXTT0=
EXTT1=
EXTT2=
EXTT3=
EXTT4=
EXTT5=
EXTT6=
EXTT7=
EXTT8=
EXTT9=
EXTT10=
EXTT11=
EXTT12=
PLAYORDER=
